<?xml version="1.0" encoding="utf-8"?>
<!-- Generator: Adobe Illustrator 15.0.2, SVG Export Plug-In  -->
<!DOCTYPE svg PUBLIC "-//W3C//DTD SVG 1.1//EN" "http://www.w3.org/Graphics/SVG/1.1/DTD/svg11.dtd" [
	<!ENTITY ns_flows "http://ns.adobe.com/Flows/1.0/">
]>
<svg version="1.1"
	 xmlns="http://www.w3.org/2000/svg" xmlns:xlink="http://www.w3.org/1999/xlink" xmlns:a="http://ns.adobe.com/AdobeSVGViewerExtensions/3.0/"
	 x="0px" y="0px" width="113px" height="113px" viewBox="-8.334 -35.483 113 113"
	 overflow="visible" enable-background="new -8.334 -35.483 113 113" xml:space="preserve">
<defs>
</defs>
<path fill-rule="evenodd" clip-rule="evenodd" fill="#575D67" d="M72.018,4.536c0.591,0.165,1.176,0.33,1.772,0.503
	c1.766,1.809,4.245,5.328,1.754,7.241c1.752-1.032,4.13,0.775,6.161,0.807c0.944,0.028,1.595-0.722,2.427-0.576
	c4.026,0.708,5.502,6.654,4.601,10.624c1.312,1.334,1.515,3.318,2.434,4.852c2.399,0.436,3.433,1.601,5.078,2.443
	c0.614,1.139,0.363,2.764,0.756,4.061c-0.427,1.457-0.857,2.951-1.284,4.42c-2.352,4.628-5.354,8.042-10.316,7.912
	c-1.65,3.781-5.402,3.661-9.899,5.475c-4.811,1.92-8.61,4.955-13.657,1.811c-2.76,0.236-5.171,3.562-8.476,2.673
	c-0.887-0.24-1.562-2.146-2.513-2.329c0,0-5.057,2.051-5.758,2.185c-2.133,0.333-4.574-0.134-6.441,0.052
	c-3.65,0.384-7.184,2.626-11.367,0.553c-1.486-0.169-0.057-1.946-1.26-2.286c-2.921,1.296-6.656,1.141-10.256,1.199
	c-0.795-0.247-1.58-0.452-2.369-0.686c-1.268-0.88-2.187-1.944-2.959-3.106c-2.573,2.373-8.175-0.215-7.167-3.985
	c-5.627-1.743-2.611-4.696-1.153-9.31c1.043-3.282,0.595-7.117,2.688-8.176c-1.264-1.304-1.054-3.403-1.37-5.195
	c0.142-0.488,0.283-0.991,0.424-1.479c1.224-1.539,3.222-1.672,4.647-2.822c-0.26-1.95,0.173-4.013,1.258-5.405
	c0.936-1.229,2.606-0.832,4.389-1.933c1.774-1.085,2.621-2.683,4.158-3.285c2.091-0.8,4.451-0.784,6.096-1.116
	c1.492-5.108,5.176-6.221,9.899-5.474c3.161-1.739,7.787-6.62,11.677-2.688C51.673-3.06,64.327,6.32,72.018,4.536z M74.028,10.866
	c1.865-4.397-9.471-6.952-13.077-5.701c-1.182,2.213,0.248,2.996,1.026,4.146c1.268-0.554,2.466-1.262,4.143-1.033
	c-1.141,0.923-2.745,1.007-2.962,3.614c0.91,2.143,2.809,1.653,4.561,1.953c4.13,0.729,8.135,3.755,7.428,7.593
	c-0.565,3.013-4.38,4.294-4.643,6.022c-0.576,3.729,6.471,3.593,9.715,4.095c1.104-1.174,0.92-2.931,0.897-4.221
	c0.686-0.085,1.133-0.66,2.035-0.375c1.656,2.453-1.403,6.3-3.859,5.609c0.029,1.807,1.725,2.688,1.149,4.82
	c4.189-0.407,4.292-8.141,7.902-9.565c-0.071-2.68-2.944-4.931-6.628-4.799c-1.35,1.139-2.679,4.738-4.529,3.496
	c1.813-4.237,5.421-5.188,10.148-4.115c0.289-3.534-1.838-7.082-4.307-8.284c4.03,2.09,1.041,8.374-2.915,7.792
	c0.833-1.532,1.536-1.086,2.047-2.604c2.156-6.342-7.976-5.661-12.271-7.397C71.723,11.847,73.399,12.354,74.028,10.866z
	 M46.621,2.628c-0.376,0.839,0.185,1.873,0.025,3.201c3.148-1.813,8.967-0.888,12.252-0.29C56.792,3.506,48.071-0.607,46.621,2.628z
	 M41.674,0.881c-1.643,1.213-3.59,1.893-5.133,3.316c0.476,0.444,1.259-0.589,1.195,0.349c-4.383,0.597-10.111-1.204-11.392,5.036
	c2.965,1.157,4.631-0.868,6.939,0.398c-1.579-0.364,1.414-1.282,1.348-0.262c-0.529,1.164-1.419,1.663-2.662,1.48
	c-0.498-0.85-2.435-1.774-3.045-0.572c1.301,0.465,0.896,1.832,1.48,2.677c1.061-0.648,1.958,0.891,2.854,1.139
	c2.092-1.589,4.872-1.983,6.024-5.279c-0.128-1.927-2.934-2.7-4.771-2.328c1.709-1.969,6.475-1.216,6.894,1.642
	c0.889-1.199,2.453-1.256,3.304-2.554C44.493,3.8,44.21,1.714,41.674,0.881z M34.062,15.008c0.205,1.215,0.181,2.857-1.034,3.548
	c6.671,0.158,12.068,3.501,13.761,7.826c1.763,0.518,3.549,1.019,5.312,1.531c5.143-0.311,6.656-9.595,13.43-5.406
	c-0.772,1.312-2.824,0.29-4.277,0.37c-0.76,1.018-2.732,2.236-2.579,3.401c2.949-0.681,5.669,1.403,8.315,1.122
	c2.002-0.189,5.594-2.664,6.115-5.596c0.774-4.392-6.884-8.549-12.351-7.087c-3.068,0.82-6.502,7.339-9.159,2.816
	c2.704-1.499,7.44-1.122,8.175-5.023c1.07-5.663-11.735-8.774-14.776-4.26c3.838,1.528,9.917,1.807,11.471,4.588
	c-4.412,1.953-9.069-3.644-14.354-3.512c-0.808,0.653-1.588,1.3-2.025,2.623c3.641,0.487,5.833,3.631,7.151,6.218
	C44.438,14.442,37.897,12.055,34.062,15.008z M69.296,50.504c7.347,0.01,15.253-17.887,1.949-18.987
	c-2.197,0.808-3.939,4.854-6.476,3.582c1.083-2.11,3.069-2.552,4.416-4.179c-0.444-1.161-1.711-1.856-3.114-2.498
	c0.09,1.716-0.849,2.941-2.43,2.83c-0.94-0.725-0.472-2.226-1.387-2.971c-4.223-1.873-6.801,0.561-10.198,0.904
	c-2.567,0.253-5.216-0.688-6.425,0.062c-4.446,2.772-1.972,10.444,3.351,10.568c1.566-1.222,3.51-1.731,5.887-1.502
	c-0.32-1.565-2.628-2.029-2.016-4.098c0.487-0.037,0.881-0.217,1.357-0.268c2.922,4.866,14.04,5.576,19.548,6.629
	c-1.636,2.258-5.17,1.14-8.456,0.437c-0.69,2.535,2.272,3.054,4.267,4.104c-0.828,0.989-2.025,0.848-3.228,0.047
	c-1.109,2.145-3.493,3.462-3.229,6.754c0.399,0.57,1.404,1.588,2.32,1.947c3.514,1.339,16.454-3.734,17.777-6.073
	c1.06-1.876,0.089-3.791,1.064-4.814c1.367,0.725,1.239,2.311,3.033,2.798c4.234-1.11,8.491-9.324,6.726-14.394
	c-1.456-0.758-2.602-1.693-4.471-2.238c-1.649,1.499-2.877,3.76-3.61,6.955c2.412,0.57,4.489,1.328,4.129,3.434
	c-0.525,0.395-0.944,0.98-1.825,0.749c-1.27-1.31-1.45-3.136-3.832-3.35c-3.319-0.273-3.859,4.249-5.36,7.416
	c-2.194,4.733-7.079,5.541-10.238,6.662C68.905,50.703,69.17,50.717,69.296,50.504z M17.045,12.967
	c1.277,0.213,2.025-0.537,3.282-0.326c-0.65,0.889-1.943,0.648-2.438,1.853c0.08,0.696,0.061,1.436,0.363,2.033
	c3.297-0.565,8.935-1.276,9.663,3.115c2.939,0.455,1.567-1.58,3.266-3.54c-0.864-2.572-3.819-0.609-5.006-1.459
	c0.487-0.615,1.408-0.419,1.481-1.815C25.643,9.213,18.623,10.032,17.045,12.967z M23.829,24.864
	c1.053-1.117,1.978-2.459,4.044-1.71c-2.437,3.254-7.356,3.865-7.589,9.643c2.023-0.229,4.885,1.077,7.049,1.094
	c1.4-1.094-0.499-2.688,1.663-2.416c0.7,5.123-6.461,3.554-10.917,2.282c-2.052,4.296-7.096,12.956-5.434,17.65
	c1.609,4.473,7.682,3.653,11.821,3.423c3.829-2.679,6.878-6.752,9.663-11.297c1.445-0.488,3.789-2.253,4.954-0.481
	c-0.897,1.609-1.73,1.017-2.524-0.105c-3.115,3.444-6.953,7.775-8.239,12.987c6.808,3.038,11.59-1.468,18.284-0.148
	c1.36-1.197,3.15-1.396,4.456-3.189c1.456-2.024,1.234-5.536,3.741-6.303c1.819,2.773-3.709,7.831-0.189,9.561
	c2.06,1.028,6.761-2.274,5.886-5.992c-0.212,1.429-2.58,1.336-3.086,0.731c1.708-2.571,5.411-1.718,6.229-4.939
	c1.202-4.717-9.037-8.784-12.716-5.913c-1.997,1.591-3.134,6.672-5.694,8.604c-1.371,1.05-3.644,1.791-5.157,2.347
	c-1.545,0.567-4.728,2.202-5.371-0.274c4.935-0.281,8.736-0.85,10.328-4.695c2.09-4.972-3.199-9.355-8.833-9.272
	c-7.812,0.094-12.693,18.572-18.716,9.313c5.319,1.152,6.311-2.453,10.381-5.957c2.97-2.586,4.92-3.023,6.38-5.527
	c2.577-4.358-1.178-5.653-5.237-7.28c3.472-1.785,7.966,0.299,8.447,4.034c0.2,1.766-0.912,3.011-0.116,4.772
	c0.99,0.16,1.747-0.084,2.836,0.182c1.748-4.655,4.054-10.992,0.498-13.942C33.255,19.391,25.85,19.186,23.829,24.864z
	 M10.091,21.527c1.332-0.722,2.78-1.251,4.521-1.251c-2.336,2.748-8.07,1.175-8.854,5.123c-1.151,5.737,7.108,1.661,9.209,3.617
	c-3.739,0.647-7.512-0.028-9.261,4.381c-0.543,1.358-0.251,3.107-0.703,4.587c-0.953,3.142-5.213,5.896-3.064,8.406
	c2.561-1.225,3.293-5.734,5.426-7.728c0.662-1.135-0.028-2.173,0.777-2.65c0.719,0.425,1.813,0.658,2.189,1.268
	c-3.06,3.794-8.055,15.135-0.217,14.036c0.444-4.483,3.623-17.956,8.129-18.145c-0.655-2.871,1.445-5.259,3.144-6.449
	c-1.457-3.256-6.16-3.514-9.152-2.664c2.516-1.472,7.325-2.77,10.145,0.38c0.979-1.943,2.709-2.559,4.007-3.963
	c-1.688-4.423-6.354-2.737-10.332-2.993C15.341,12.021,8.643,16.687,10.091,21.527z"/>
</svg>
