<svg id="Layer_1" data-name="Layer 1" xmlns="http://www.w3.org/2000/svg" xmlns:xlink="http://www.w3.org/1999/xlink" viewBox="0 0 131.5 79.73"><defs><style>.cls-1{fill:none;}.cls-2{fill:#f68e50;}.cls-3{clip-path:url(#clip-path);}.cls-4{fill:#d26b52;}.cls-5{clip-path:url(#clip-path-2);}</style><clipPath id="clip-path"><polygon class="cls-1" points="39.2 14.68 39.2 31.93 66.52 49.43 67.83 15.43 39.2 14.68"/></clipPath><clipPath id="clip-path-2"><polygon class="cls-1" points="58.18 15.8 58.18 26.67 89.78 43.85 90.93 16.58 58.18 15.8"/></clipPath></defs><title>D3</title><path class="cls-2" d="M63.14,49.41a20.48,20.48,0,0,0,3.34-14.58,21,21,0,0,0-6.24-12.38,21.64,21.64,0,0,0-5.29-3.77,12.08,12.08,0,0,0-3-1.2l-.77-.26c-3-.92-6.09-.81-9.17-.8-.33,0-.32.2-.32.42q0,4.25,0,8.49c0,.3.1.42.4.41.66,0,1.33,0,2,0a27.37,27.37,0,0,1,3.32.22,11.47,11.47,0,0,1,9.2,7.6,11.36,11.36,0,0,1-2,11.77,11.51,11.51,0,0,1-8,4.26c-1.46.16-2.93.07-4.4.08-.35,0-.52.07-.52.48,0,2.8,0,5.6,0,8.39,0,.32.08.45.42.45a46,46,0,0,0,6.56-.25A20.91,20.91,0,0,0,63.14,49.41Z"/><path class="cls-2" d="M86.46,44.39a12.4,12.4,0,0,0-2.58-6.3c-.28-.36-.21-.56,0-.89a12.39,12.39,0,0,0,2.62-7.5,12.7,12.7,0,0,0-5-10.49A12.08,12.08,0,0,0,74,16.45c-5.07-.06-10.13,0-15.2,0-.08,0-.2,0-.24.09a.43.43,0,0,0,.08.08,24.94,24.94,0,0,1,8.45,8.86c.17.3.4.31.68.31,2,0,3.91,0,5.87,0a3.61,3.61,0,0,1,3.59,3.47,3.65,3.65,0,0,1-2.84,3.67,16.29,16.29,0,0,1-2.16.11c-.65,0-1.29,0-1.94,0-.33,0-.43.05-.36.42a24.21,24.21,0,0,1,.39,4A23,23,0,0,1,70,41.86c-.07.4,0,.46.4.46,1.06,0,2.11,0,3.17,0a3.62,3.62,0,1,1-.08,7.24c-1.84,0-3.68,0-5.52,0a.89.89,0,0,0-.91.52,24.43,24.43,0,0,1-6,7c-.74.59-1.51,1.14-2.4,1.8H73.53A12.95,12.95,0,0,0,86.46,44.39Z"/><g class="cls-3"><path class="cls-4" d="M63,49.43a20.48,20.48,0,0,0,3.34-14.58,21,21,0,0,0-6.24-12.38,21.64,21.64,0,0,0-5.29-3.77,12.08,12.08,0,0,0-3-1.2L51,17.24c-3-.92-6.09-.81-9.17-.8-.33,0-.32.2-.32.42q0,4.25,0,8.49c0,.3.1.42.4.41.66,0,1.33,0,2,0a27.37,27.37,0,0,1,3.32.22,11.47,11.47,0,0,1,9.2,7.6,11.36,11.36,0,0,1-2,11.77,11.51,11.51,0,0,1-8,4.26c-1.46.16-2.93.07-4.4.08-.35,0-.52.07-.52.48,0,2.8,0,5.6,0,8.39,0,.32.08.45.42.45a46,46,0,0,0,6.56-.25A20.91,20.91,0,0,0,63,49.43Z"/></g><g class="cls-5"><path class="cls-4" d="M86.4,44.3A12.4,12.4,0,0,0,83.82,38c-.28-.36-.21-.56,0-.89a12.39,12.39,0,0,0,2.62-7.5,12.7,12.7,0,0,0-5-10.49,12.08,12.08,0,0,0-7.56-2.76c-5.07-.06-10.13,0-15.2,0-.08,0-.2,0-.24.09a.43.43,0,0,0,.08.08A24.94,24.94,0,0,1,67,25.36c.17.3.4.31.68.31,2,0,3.91,0,5.87,0a3.61,3.61,0,0,1,3.59,3.47,3.65,3.65,0,0,1-2.84,3.67,16.29,16.29,0,0,1-2.16.11c-.65,0-1.29,0-1.94,0-.33,0-.43.05-.36.42a24.21,24.21,0,0,1,.39,4,23,23,0,0,1-.37,4.49c-.07.4,0,.46.4.46,1.06,0,2.11,0,3.17,0a3.62,3.62,0,1,1-.08,7.24c-1.84,0-3.68,0-5.52,0A.89.89,0,0,0,67,50a24.43,24.43,0,0,1-6,7c-.74.59-1.51,1.14-2.4,1.8H73.47A12.95,12.95,0,0,0,86.4,44.3Z"/></g></svg>