<svg id="Layer_1" data-name="Layer 1" xmlns="http://www.w3.org/2000/svg" viewBox="0 0 131.5 79.73"><defs><style>.cls-1{fill:#2c3e50;}.cls-2{fill:#26b99a;}.cls-3{fill:#35495e;}.cls-4,.cls-6{fill:#fff;stroke:#2d3f50;stroke-miterlimit:10;}.cls-4{stroke-width:0.34px;}.cls-5{fill:#2d3f50;}.cls-6{stroke-width:0.3px;}</style></defs><title>data-cleaning</title><circle class="cls-1" cx="81.01" cy="48.42" r="1.89"/><path class="cls-1" d="M91.76,30.15c-7.92,0-14.34,1.7-14.34,3.8l.12,10.31a1.12,1.12,0,0,0-.12.47c0,2.1,6.42,3.8,14.34,3.8s14.29-1.69,14.34-3.78h0V34C106.1,31.85,99.68,30.15,91.76,30.15Z"/><path class="cls-2" d="M91.76,28.15c-7.92,0-14.34,1.7-14.34,3.8l.12,10.31a1.12,1.12,0,0,0-.12.47c0,2.1,6.42,3.8,14.34,3.8s14.29-1.69,14.34-3.78h0V32C106.1,29.85,99.68,28.15,91.76,28.15Z"/><path class="cls-3" d="M91.76,21c-7.92,0-14.34,1.7-14.34,3.8l.12,10.31a1.12,1.12,0,0,0-.12.47c0,2.1,6.42,3.8,14.34,3.8s14.29-1.69,14.34-3.78h0V24.76C106.1,22.67,99.68,21,91.76,21Z"/><ellipse class="cls-1" cx="91.76" cy="24.63" rx="14.34" ry="3.53"/><path class="cls-3" d="M94.38,24.44C96,13.23,82.6,11,75,15.88,63.63,23,60.56,38.08,51.15,47.19c-1,1,.55,2.6,1.59,1.59,6.14-6,9.72-13.43,14.1-20.65,2.53-4.16,5.6-8.21,9.87-10.71,5.61-3.28,16.74-2.47,15.49,6.42-.2,1.42,2,2,2.17.6Z"/><path class="cls-3" d="M39.62,48l22.29,3a1.82,1.82,0,0,0,1.5-.43l1.45-1.82c.25-.31,0-.63-.59-.71L42,45a1.82,1.82,0,0,0-1.5.43L39,47.28C38.78,47.59,39,47.91,39.62,48Z"/><path class="cls-4" d="M34,65.59a1.08,1.08,0,0,1-.66.15L21.94,64.67c-.23,0-.31-.13-.17-.23l9.92-7.73a1.08,1.08,0,0,1,.66-.15l11.39,1.07c.23,0,.31.13.17.23Z"/><polygon class="cls-5" points="36.03 59.58 33.94 59.38 34.84 58.68 36.93 58.88 36.03 59.58"/><polygon class="cls-2" points="34.74 60.59 32.64 60.39 33.54 59.69 35.64 59.88 34.74 60.59"/><polygon class="cls-2" points="33.44 61.59 31.35 61.4 32.25 60.7 34.34 60.89 33.44 61.59"/><polygon class="cls-2" points="32.15 62.6 30.05 62.41 30.95 61.71 33.05 61.9 32.15 62.6"/><polygon class="cls-2" points="30.86 63.61 28.76 63.42 29.66 62.72 31.75 62.91 30.86 63.61"/><polygon class="cls-5" points="32.94 59.28 30.85 59.09 31.75 58.39 33.84 58.58 32.94 59.28"/><polygon class="cls-2" points="31.65 60.29 29.55 60.1 30.45 59.4 32.55 59.59 31.65 60.29"/><polygon class="cls-2" points="30.35 61.3 28.26 61.11 29.16 60.41 31.25 60.6 30.35 61.3"/><polygon class="cls-2" points="29.06 62.31 26.96 62.12 27.86 61.41 29.96 61.61 29.06 62.31"/><polygon class="cls-2" points="27.76 63.32 25.67 63.13 26.57 62.42 28.66 62.62 27.76 63.32"/><polygon class="cls-5" points="39.12 59.87 37.03 59.67 37.93 58.97 40.02 59.17 39.12 59.87"/><polygon class="cls-2" points="42.06 54.15 38.94 55.86 40.08 54.7 43.2 52.99 42.06 54.15"/><polygon class="cls-2" points="36.53 61.89 34.44 61.69 35.34 60.99 37.43 61.19 36.53 61.89"/><polygon class="cls-2" points="35.24 62.9 33.15 62.7 34.04 62 36.14 62.2 35.24 62.9"/><polygon class="cls-2" points="33.95 63.91 31.85 63.71 32.75 63.01 34.84 63.2 33.95 63.91"/><path class="cls-6" d="M48.5,68.65a1,1,0,0,1-.59.14l-10.17-1c-.21,0-.27-.11-.15-.21l8.85-6.9a1,1,0,0,1,.59-.14l10.17,1c.21,0,.27.11.15.21Z"/><polygon class="cls-5" points="50.32 63.28 48.45 63.11 49.25 62.48 51.12 62.66 50.32 63.28"/><polygon class="cls-2" points="52.99 54.23 51.57 55.07 52.1 53.83 53.52 52.99 52.99 54.23"/><polygon class="cls-2" points="48.01 65.09 46.14 64.91 46.94 64.29 48.81 64.46 48.01 65.09"/><polygon class="cls-2" points="46.85 65.99 44.98 65.81 45.78 65.19 47.65 65.36 46.85 65.99"/><polygon class="cls-2" points="45.7 66.89 43.83 66.71 44.63 66.09 46.5 66.27 45.7 66.89"/><polygon class="cls-5" points="47.56 63.02 45.69 62.85 46.49 62.22 48.36 62.4 47.56 63.02"/><polygon class="cls-2" points="46.41 63.93 44.54 63.75 45.34 63.13 47.21 63.3 46.41 63.93"/><polygon class="cls-2" points="45.25 64.83 43.38 64.65 44.18 64.03 46.05 64.2 45.25 64.83"/><polygon class="cls-2" points="44.09 65.73 42.22 65.55 43.02 64.93 44.9 65.1 44.09 65.73"/><polygon class="cls-2" points="42.94 66.63 41.07 66.45 41.87 65.83 43.74 66 42.94 66.63"/><polygon class="cls-5" points="53.08 63.55 51.21 63.37 52.01 62.74 53.88 62.92 53.08 63.55"/><polygon class="cls-2" points="51.92 64.45 50.05 64.27 50.85 63.65 52.73 63.82 51.92 64.45"/><polygon class="cls-2" points="50.77 65.35 48.9 65.17 49.7 64.55 51.57 64.72 50.77 65.35"/><polygon class="cls-2" points="49.61 66.25 47.74 66.07 48.54 65.45 50.41 65.62 49.61 66.25"/><polygon class="cls-2" points="48.46 67.15 46.59 66.97 47.39 66.35 49.26 66.53 48.46 67.15"/><circle class="cls-1" cx="102.84" cy="48.42" r="1.89"/></svg>