<svg id="Layer_1" data-name="Layer 1" xmlns="http://www.w3.org/2000/svg" xmlns:xlink="http://www.w3.org/1999/xlink" viewBox="0 0 131.5 79.73"><defs><style>.cls-1{fill:none;}.cls-2{fill:#2c3e50;}.cls-3{clip-path:url(#clip-path);}.cls-4{fill:#26b99a;}</style><clipPath id="clip-path"><polygon class="cls-1" points="29.25 10.99 29.25 22.29 95.75 43.44 95.75 12.8 29.25 10.99"/></clipPath></defs><title>dc</title><rect class="cls-2" x="41.5" y="57.56" width="5.05" height="8.14"/><path class="cls-2" d="M64.3,37.12A3.6,3.6,0,0,0,60.69,41a3.6,3.6,0,1,0,7.18,0A3.56,3.56,0,0,0,64.3,37.12Z"/><path class="cls-2" d="M41.5,14.7V51.61h5V18.7h5.57V51.61H88.5v5.94H52.12V65.7H92.5v-51ZM70.4,46.76H67.88v-2a4.53,4.53,0,0,1-4.11,2.11c-3.36,0-5.6-2.44-5.6-6S60.43,35,63.73,35a4.62,4.62,0,0,1,4.15,2.13V30.46H70.4Zm8.63.09a5.62,5.62,0,0,1-5.89-5.91A5.65,5.65,0,0,1,79,35a6.17,6.17,0,0,1,4.83,1.91l-1.38,1.63a4.41,4.41,0,0,0-3.34-1.32,3.46,3.46,0,0,0-3.47,3.73,3.46,3.46,0,0,0,3.47,3.73,4.36,4.36,0,0,0,3.45-1.41L84,44.67A6,6,0,0,1,79,46.85Z"/><g class="cls-3"><rect class="cls-4" x="46.55" y="18.72" width="5.57" height="47"/><rect class="cls-4" x="62.03" y="31.11" width="5.94" height="47" transform="translate(119.61 -10.39) rotate(90)"/><path class="cls-4" d="M70.4,46.78H67.88v-2a4.53,4.53,0,0,1-4.11,2.11c-3.36,0-5.6-2.44-5.6-6S60.43,35,63.73,35a4.62,4.62,0,0,1,4.15,2.13V30.48H70.4ZM67.88,41a3.56,3.56,0,0,0-3.58-3.84A3.6,3.6,0,0,0,60.69,41a3.6,3.6,0,1,0,7.18,0Z"/><path class="cls-4" d="M83.87,36.92l-1.38,1.63a4.41,4.41,0,0,0-3.34-1.32A3.46,3.46,0,0,0,75.67,41a3.46,3.46,0,0,0,3.47,3.73,4.36,4.36,0,0,0,3.45-1.41L84,44.69a6,6,0,0,1-5,2.18A5.62,5.62,0,0,1,73.15,41,5.65,5.65,0,0,1,79,35,6.17,6.17,0,0,1,83.87,36.92Z"/></g></svg>