<?xml version="1.0" encoding="utf-8"?>
<!-- Generator: Adobe Illustrator 20.1.0, SVG Export Plug-In . SVG Version: 6.00 Build 0)  -->
<svg version="1.1" id="Layer_1" xmlns="http://www.w3.org/2000/svg" xmlns:xlink="http://www.w3.org/1999/xlink" x="0px" y="0px"
	 viewBox="0 0 131 79.7" style="enable-background:new 0 0 131 79.7;" xml:space="preserve">
<style type="text/css">
	.st0{fill:#26B99A;}
	.st1{fill:#2C3E50;}
</style>
<path class="st0" d="M80.8,40.9c-0.6-0.6-1.7-0.6-2.3,0C78.2,41.2,78,41.6,78,42c0,0.4,0.2,0.8,0.5,1.1l11.4,11.4
	c0,0.1,0,0.3-0.1,0.4l-8.5,8.6c-0.1,0-0.3,0.2-0.6,0.2c-0.2,0-0.4,0-0.5-0.2c-0.1-0.1-0.6-0.6-1.4-1.5l5.7-5.7
	c0.6-0.6,0.6-1.6,0-2.3c-0.6-0.6-1.7-0.6-2.3,0l-5.6,5.6c-0.8-0.8-1.8-1.8-2.8-2.9l2.2-2.2c0.6-0.6,0.6-1.6,0-2.3
	c-0.6-0.6-1.7-0.6-2.3,0l-2.2,2.2c-0.7-0.7-1.4-1.4-2.1-2.1c-0.6-0.6-1.7-0.6-2.3,0c-0.6,0.6-0.6,1.6,0,2.3
	c6.3,6.3,10.7,11,10.8,11.1c0.7,0.7,1.7,1.1,2.8,1.1c1.1,0,2.2-0.4,2.9-1.1l8.5-8.6c1.4-1.4,1.4-3.6,0.1-4.9L80.8,40.9z"/>
<path class="st0" d="M49.9,37.6c0.3,0.3,0.7,0.5,1.1,0.5c0.4,0,0.8-0.2,1.1-0.5c0.3-0.3,0.5-0.7,0.5-1.1c0-0.4-0.2-0.8-0.5-1.1
	c-0.8-0.8-1.5-1.5-2.3-2.2l2.2-2.2c0.6-0.6,0.6-1.6,0-2.3c-0.6-0.6-1.7-0.6-2.3,0l-2.2,2.2c-1.1-1-2-2-2.9-2.8l5.6-5.6
	c0.6-0.6,0.6-1.6,0-2.3c-0.6-0.6-1.7-0.6-2.3,0l-5.6,5.6L41,24.4c-0.1-0.1-0.2-0.3-0.2-0.5c0-0.2,0-0.4,0.2-0.6l8.5-8.5
	c0.1-0.1,0.3-0.3,0.6-0.3c0.2,0,0.3,0.1,0.5,0.3c1.1,1.2,5.1,5.7,10.9,11.5c0.6,0.6,1.7,0.6,2.3,0c0.3-0.3,0.5-0.7,0.5-1.1
	c0-0.4-0.2-0.8-0.5-1.1C57.6,17.7,53.4,13,52.9,12.5c-0.8-0.8-1.8-1.2-2.8-1.2c-1,0-2.1,0.5-2.9,1.2L38.8,21c-1.8,1.8-1.4,4.3,0,5.7
	C38.8,26.7,43.4,31.1,49.9,37.6z"/>
<path class="st1" d="M86.4,32l6.2-6.2c0.6-0.6,1-1.5,1-2.4c0-0.9-0.4-1.8-1-2.4l-8.9-8.9c-1.2-1.2-3.6-1.2-4.8,0l-6.4,6.4
	c-0.1,0.1-0.1,0.2-0.2,0.2L43.3,47.8c-0.2,0.2-0.3,0.4-0.4,0.6l-5.4,16.5c-0.2,0.6,0,1.2,0.4,1.6c0.3,0.3,0.7,0.5,1.1,0.5
	c0.2,0,0.3,0,0.5-0.1l17-5.1c0.3-0.1,0.5-0.2,0.7-0.4l29.1-29.3C86.3,32.2,86.4,32.1,86.4,32z M82.9,31.1L56.7,57.5l-0.5-1.8
	L82,30.2L82.9,31.1z M50.8,53.7v-2.9l25.8-25.9l3.1,3.1l-26,25.7H50.8z M49.2,56.9h3.9l0.7,2.5L41.5,63l4-12.2l2.2,0.5v4
	C47.6,56.2,48.4,56.9,49.2,56.9z M47.6,48l26.1-26.1l0.7,0.7L48.8,48.3L47.6,48z M90.4,23.5c0,0.1,0,0.1-0.1,0.1l-5.2,5.2l-9.2-9.2
	l5.2-5.2c0.1-0.1,0.2-0.1,0.3,0l8.9,8.9C90.3,23.4,90.4,23.4,90.4,23.5z"/>
</svg>
