<?xml version="1.0" encoding="utf-8"?>
<!-- Generator: Adobe Illustrator 20.1.0, SVG Export Plug-In . SVG Version: 6.00 Build 0)  -->
<svg version="1.1" id="Layer_1" xmlns="http://www.w3.org/2000/svg" xmlns:xlink="http://www.w3.org/1999/xlink" x="0px" y="0px"
	 viewBox="0 0 131.5 79.7" style="enable-background:new 0 0 131.5 79.7;" xml:space="preserve">
<style type="text/css">
	.st0{fill:#26B99A;}
</style>
<title>loading</title>
<path class="st0" d="M70.6,27.7c1.9,0,3.9,0.4,5.6,1.1c3.5,1.4,6.3,4.2,7.7,7.7c1.5,3.5,1.5,7.4,0.1,10.9c-0.6,1.6-1.6,3.1-2.7,4.4
	c-1.2,1.3-2.6,2.4-4.1,3.2c-1.6,0.8-3.3,1.3-5.1,1.5v-3.3c1.8-0.2,3.5-0.9,4.9-2c1.5-1,2.7-2.4,3.5-4c1.5-3,1.7-6.5,0.3-9.6
	c-1.1-2.7-3.3-4.9-6-6c-2.7-1.1-5.7-1.2-8.4-0.1c-2.5,0.9-4.6,2.8-5.8,5.1c-0.7,1.2-1.1,2.5-1.3,3.8h-3.3c-3.6,0-6.4,2.9-6.4,6.4v0
	c0,0.9,0.2,1.9,0.6,2.7c0.3,0.8,0.9,1.5,1.5,2.1c0.6,0.5,1.3,1,2.1,1.2c0.7,0.3,1.5,0.4,2.3,0.4h6.4v3.3h-6.5
	c-1.7,0-3.4-0.4-4.9-1.3c-1.5-0.8-2.7-2.1-3.5-3.5c-1.7-3-1.7-6.7,0-9.7c0.8-1.5,2.1-2.7,3.5-3.5c1.5-0.9,3.2-1.3,4.9-1.3h0.8
	c1.3-3.8,4.1-6.8,7.8-8.4C66.6,28.2,68.6,27.8,70.6,27.7L70.6,27.7z M67.3,40.6c0.4,0,0.8,0.2,1.1,0.5l4.8,4.8
	c0.3,0.3,0.5,0.7,0.5,1.1c0,0.9-0.7,1.6-1.6,1.6c-0.4,0-0.8-0.2-1.1-0.5l-2.1-2.1v10.6c0,0.9-0.7,1.6-1.6,1.6
	c-0.9,0-1.6-0.7-1.6-1.6V46.1l-2.1,2.1c-0.7,0.6-1.7,0.6-2.3-0.1c-0.3-0.3-0.4-0.7-0.4-1.1c0-0.4,0.2-0.8,0.5-1.1l5-4.8
	C66.5,40.8,66.9,40.6,67.3,40.6L67.3,40.6z"/>
</svg>
